<?xml version="1.0" encoding="utf-8"?>
<!-- Generator: Adobe Illustrator 24.0.3, SVG Export Plug-In . SVG Version: 6.00 Build 0)  -->
<svg version="1.1" id="Layer_1" xmlns="http://www.w3.org/2000/svg" xmlns:xlink="http://www.w3.org/1999/xlink" x="0px" y="0px"
	 viewBox="0 0 280.03 47.27" style="enable-background:new 0 0 280.03 47.27;" xml:space="preserve">
<style type="text/css">
	.st0{fill-rule:evenodd;clip-rule:evenodd;}
</style>
<g>
	<path class="st0" d="M62.33,28.71L71.7,0h14.15l9.53,28.71H84.6l-1.79-5.17h-8.46l-1.8,5.17H62.33z M78.81,6.36l-4.09,11.38h7.85
		L78.81,6.36z M182.17,28.73l9.37-28.71h14.15l9.53,28.71h-10.78l-1.79-5.17h-8.47l-1.8,5.17H182.17L182.17,28.73z M198.65,6.37
		l-4.09,11.38h7.85L198.65,6.37z M97.84,28.71V0h20.37c2.3,0,4.17,0.82,5.64,1.83c1.47,1,2.73,2.3,3.23,4.06
		c0.71,2.5,0.56,4.51,0.08,5.89c-0.48,1.38-1.3,2.54-2.48,3.46s-2.17,1.66-4.37,2.19c0.85,0.87,0.84,0.9,1.85,1.61
		c1.37,0.97,2.63,1.11,7.32,1.13l8.06,0v8.55l-8.11,0.02c-8.83,0.02-11.94-0.05-13.63-1.56c-2.13-1.91-4.44-4.14-7.65-7.94v9.48
		L97.84,28.71L97.84,28.71z M108.13,7.15v5.3h7.18c0.38,0,0.8-0.14,1.25-0.43c0.44-0.28,0.69-1,0.71-2.16
		c-0.07-1.1-0.34-1.83-0.8-2.18c-0.47-0.35-0.86-0.53-1.17-0.53H108.13L108.13,7.15z M280.03,0.01h-21.01
		c-3.63,0-5.79,1.77-6.47,5.33c-0.68,3.55,1.27,7.45,5.85,11.69c2.78,2.21,2.29,3.25-1.42,3.14h-4.89v-0.01l-2.59,0
		c-4.69-0.02-5.95-0.16-7.32-1.13c-1.01-0.71-1-0.75-1.85-1.61c2.21-0.53,3.19-1.26,4.37-2.19c1.18-0.93,2.01-2.08,2.48-3.46
		c0.47-1.38,0.63-3.39-0.08-5.89c-0.5-1.76-1.76-3.06-3.23-4.06C242.4,0.82,240.53,0,238.23,0h-20.37v28.71h10.3v-9.48
		c3.21,3.8,5.52,6.03,7.65,7.94c1.69,1.52,4.8,1.63,13.63,1.56l1.53-0.01v0h15.15c4.1-0.69,6.2-2.81,6.28-6.37
		c0.07-3.55-1.98-7.25-6.28-10.98c-2.35-2.03-1.88-2.82,1.5-2.82h12.41L280.03,0.01L280.03,0.01z M228.16,7.15v5.3h7.18
		c0.39,0,0.8-0.14,1.25-0.43c0.44-0.28,0.69-1,0.71-2.16c-0.07-1.1-0.34-1.83-0.8-2.18c-0.47-0.35-0.86-0.53-1.17-0.53H228.16z
		 M22.62,0c-3.63,0-5.78,1.77-6.47,5.33c-0.68,3.55,1.15,7.58,5.84,11.69c2.67,2.34,2.3,3.14-1.42,3.14H0v8.55h29.72
		c4.16,0,6.2-2.81,6.28-6.37c0.08-3.55-2.01-7.21-6.28-10.98c-2.38-1.99-1.88-2.93,1.5-2.82h12.76v20.17h9.27V8.55h12.94V0H22.62z
		 M158.5,0l-2.55,8.53L153.13,0H142.5l9.37,28.71h9.18l3.14-9.59l3.14,9.59h9.18L185.87,0h-10.63l-2.83,8.53L169.87,0H158.5L158.5,0
		z"/>
	<g>
		<path d="M31.79,44.08v-7.5h-0.04l-2.99,7.5h-0.78l-3-7.5h-0.02v7.5h-1.3v-8.88h2.04l2.66,6.8l2.67-6.8h2.04v8.88H31.79z"/>
		<path d="M52.66,44.08l-0.98-2.61h-3.19l-0.98,2.61h-1.37l3.37-8.88h1.16l3.37,8.88H52.66z M50.1,36.89h-0.02l-1.14,3.39h2.29
			L50.1,36.89z"/>
		<path d="M66.65,44.08V42.9l3.85-6.5h-3.65v-1.19h5.1v1.19l-3.83,6.5h3.98v1.19H66.65z"/>
		<path d="M84.93,44.08v-8.88h4.79v1.19h-3.49v2.61h3.49v1.19h-3.49v2.7h3.49v1.19H84.93z"/>
		<path d="M122.93,44.25c-2.46,0-4.55-2.11-4.55-4.51c0-2.72,2.09-4.7,4.58-4.7c2.64,0,4.65,2.08,4.65,4.55
			C127.62,42.27,125.54,44.25,122.93,44.25z M126.32,39.67c0-1.83-1.39-3.44-3.26-3.44c-2.4,0-3.38,2.06-3.38,3.38
			c0,1.79,1.3,3.45,3.32,3.45C125.1,43.06,126.32,41.29,126.32,39.67z"/>
		<path d="M140.86,44.08v-8.88h4.49v1.19h-3.19v2.66h3.19v1.19h-3.19v3.84H140.86z"/>
		<path d="M174.18,44.08v-8.88h3.08c2.69,0,4.33,2.12,4.33,4.44c0,2.71-1.71,4.44-4.52,4.44H174.18z M177.03,42.9
			c2.05,0,3.27-1.2,3.27-3.23c0-1.99-1.4-3.27-3.21-3.27h-1.61v6.5H177.03z"/>
		<path d="M194.97,44.08v-8.88h4.79v1.19h-3.49v2.61h3.49v1.19h-3.49v2.7h3.49v1.19H194.97z"/>
		<path d="M219.11,44.08l-0.98-2.61h-3.19l-0.98,2.61h-1.37l3.37-8.88h1.16l3.37,8.88H219.11z M216.55,36.89h-0.02l-1.14,3.39h2.29
			L216.55,36.89z"/>
		<path d="M234.12,44.08V36.4h-1.7v-1.19h4.7v1.19h-1.7v7.69H234.12z"/>
		<path d="M255.07,44.08v-3.86h-3.66v3.86h-1.29v-8.88h1.29v3.83h3.66v-3.83h1.3v8.88H255.07z"/>
	</g>
</g>
</svg>
