<?xml version="1.0" encoding="utf-8"?>
<!-- Generator: Adobe Illustrator 24.0.3, SVG Export Plug-In . SVG Version: 6.00 Build 0)  -->
<svg version="1.1" id="Layer_1" xmlns="http://www.w3.org/2000/svg" xmlns:xlink="http://www.w3.org/1999/xlink" x="0px" y="0px"
	 viewBox="0 0 300 47.93" style="enable-background:new 0 0 300 47.93;" xml:space="preserve">
<style type="text/css">
	.st0{fill-rule:evenodd;clip-rule:evenodd;}
</style>
<g>
	<path class="st0" d="M66.78,30.76L76.82,0h15.16l10.21,30.76H90.64l-1.92-5.54h-9.07l-1.93,5.54H66.78z M84.43,6.81L80.05,19h8.41
		L84.43,6.81z M195.17,30.77L205.2,0.01h15.15l10.21,30.76h-11.54l-1.92-5.54h-9.07l-1.93,5.54H195.17L195.17,30.77z M212.81,6.83
		l-4.38,12.19h8.41L212.81,6.83z M104.82,30.76V0h21.82c2.46,0,4.47,0.88,6.05,1.96c1.57,1.07,2.92,2.46,3.46,4.35
		c0.76,2.68,0.59,4.83,0.09,6.31c-0.51,1.48-1.4,2.72-2.66,3.71s-2.32,1.77-4.69,2.34c0.91,0.93,0.9,0.97,1.98,1.73
		c1.47,1.04,2.82,1.19,7.84,1.21l8.63,0v9.16l-8.69,0.02c-9.46,0.02-12.79-0.05-14.6-1.68c-2.28-2.04-4.76-4.44-8.2-8.51v10.16
		L104.82,30.76L104.82,30.76z M115.85,7.66v5.67h7.69c0.41,0,0.86-0.15,1.34-0.46c0.48-0.3,0.74-1.08,0.76-2.31
		c-0.07-1.18-0.36-1.96-0.86-2.33c-0.5-0.38-0.92-0.57-1.26-0.57H115.85L115.85,7.66z M300,0.01h-22.51c-3.89,0-6.2,1.9-6.93,5.71
		c-0.73,3.8,1.36,7.98,6.26,12.52c2.97,2.37,2.46,3.48-1.52,3.37h-5.23V21.6l-2.77,0c-5.02-0.02-6.37-0.17-7.84-1.21
		c-1.08-0.76-1.07-0.8-1.98-1.73c2.37-0.57,3.42-1.35,4.69-2.34c1.27-0.99,2.16-2.23,2.66-3.71c0.51-1.48,0.68-3.63-0.09-6.31
		c-0.54-1.89-1.89-3.27-3.46-4.35C259.68,0.88,257.68,0,255.22,0H233.4v30.76h11.03V20.6c3.44,4.07,5.92,6.46,8.2,8.51
		c1.81,1.63,5.14,1.75,14.6,1.68l1.64-0.01v0h16.23c4.39-0.74,6.64-3.01,6.72-6.82c0.08-3.8-2.12-7.77-6.72-11.76
		c-2.51-2.18-2.01-3.03,1.61-3.03H300L300,0.01L300,0.01z M244.43,7.66v5.67h7.69c0.41,0,0.86-0.15,1.33-0.46
		c0.48-0.3,0.74-1.08,0.76-2.31c-0.07-1.18-0.36-1.96-0.86-2.33c-0.5-0.38-0.92-0.57-1.25-0.57H244.43z M24.23,0
		c-3.89,0-6.2,1.9-6.93,5.71c-0.73,3.8,1.24,8.12,6.26,12.52c2.86,2.5,2.46,3.37-1.52,3.37H0v9.16h31.84c4.45,0,6.64-3.01,6.72-6.82
		c0.08-3.8-2.16-7.72-6.72-11.76c-2.55-2.13-2.01-3.13,1.61-3.02h13.67v21.61h9.93V9.16H70.9V0H24.23z M169.81,0l-2.73,9.14
		L164.05,0h-11.39l10.03,30.76h9.83l3.37-10.28l3.36,10.28h9.83L199.13,0h-11.39l-3.03,9.14L181.98,0H169.81L169.81,0z"/>
	<g>
		<path d="M31.27,43.95c0-1.62,0-3.17,0.05-4.03H31.3c-0.42,1.2-2.1,4.95-3.38,7.83h-0.83c-0.95-2.29-2.78-6.55-3.25-7.82h-0.01
			c0.07,0.97,0.11,2.82,0.11,4.26v3.56h-0.9v-8.54h1.37c1.26,2.84,2.9,6.67,3.15,7.35h0.01c0.42-0.98,2.09-4.71,3.24-7.35h1.4v8.54
			h-0.95V43.95z"/>
		<path d="M47.84,44.98l-1.2,2.77h-1.02l3.74-8.54h1.13l3.87,8.54h-1.04l-1.26-2.77H47.84z M51.73,44.13
			c-1.12-2.47-1.63-3.62-1.82-4.19h-0.01c-0.18,0.54-0.8,2.05-1.72,4.19H51.73z"/>
		<path d="M67.31,47.04l6.19-7h-5.89v-0.83h7.17v0.73l-6.14,6.98h6.42l-0.17,0.83h-7.58V47.04z"/>
		<path d="M94.71,43.67H89.5v3.24h5.74l-0.13,0.84h-6.57v-8.54h6.45v0.84H89.5v2.78h5.22V43.67z"/>
		<path d="M132.91,43.46c0,2.42-1.64,4.47-4.44,4.47c-2.71,0-4.45-1.98-4.45-4.49c0-2.38,1.76-4.41,4.46-4.41
			C131.14,39.03,132.91,41.07,132.91,43.46z M125.04,43.41c0,1.91,1.21,3.68,3.45,3.68c2.19,0,3.39-1.63,3.39-3.61
			c0-1.85-1.22-3.61-3.48-3.61C126.33,39.87,125.04,41.5,125.04,43.41z"/>
		<path d="M146.88,39.21h6.36v0.83h-5.38v3.02h5.01v0.85h-5.01v3.84h-0.97V39.21z"/>
		<path d="M182.6,39.21h3.41c2.72,0,4.34,1.77,4.34,4.14c0,2.73-1.9,4.4-4.35,4.4h-3.39V39.21z M183.56,46.93h2.2
			c2.43,0,3.57-1.56,3.57-3.55c0-2.09-1.4-3.33-3.47-3.33h-2.3V46.93z"/>
		<path d="M210.5,43.67h-5.22v3.24h5.75l-0.13,0.84h-6.57v-8.54h6.45v0.84h-5.49v2.78h5.22V43.67z"/>
		<path d="M226.23,44.98l-1.2,2.77h-1.02l3.74-8.54h1.13l3.87,8.54h-1.04l-1.26-2.77H226.23z M230.12,44.13
			c-1.12-2.47-1.63-3.62-1.82-4.19h-0.01c-0.18,0.54-0.8,2.05-1.71,4.19H230.12z"/>
		<path d="M247.18,40.05h-3.33v-0.84h7.63v0.84h-3.32v7.7h-0.97V40.05z"/>
		<path d="M264.93,39.21h0.96v3.51h5.48v-3.51h0.96v8.54h-0.96v-4.17h-5.48v4.17h-0.96V39.21z"/>
	</g>
</g>
</svg>
